<?xml version="1.0" encoding="UTF-8"?>
<svg xmlns="http://www.w3.org/2000/svg" xmlns:xlink="http://www.w3.org/1999/xlink" width="194pt" height="194pt" viewBox="0 0 194 194" version="1.1">
<g id="surface1">
<path style=" stroke:none;fill-rule:evenodd;fill:rgb(100%,100%,100%);fill-opacity:1;" d="M 0.257813 0.675781 L 193.015625 0.675781 L 193.015625 193.433594 L 0.257813 193.433594 L 0.257813 0.675781 "/>
<path style=" stroke:none;fill-rule:evenodd;fill:rgb(1.998901%,45.098877%,27.099609%);fill-opacity:1;" d="M 8.761719 184.90625 Z M 96.664063 184.855469 C 145.058594 184.855469 184.511719 145.402344 184.511719 97.007813 C 184.511719 48.65625 145.058594 9.203125 96.664063 9.203125 C 48.292969 9.203125 8.859375 48.65625 8.859375 97.007813 C 8.859375 145.402344 48.292969 184.855469 96.664063 184.855469 "/>
<path style=" stroke:none;fill-rule:evenodd;fill:rgb(100%,100%,100%);fill-opacity:1;" d="M 96.664063 182.007813 C 73.289063 182.007813 52.09375 172.445313 36.636719 157.054688 C 21.269531 141.621094 11.707031 120.402344 11.707031 97.007813 C 11.707031 73.65625 21.269531 52.4375 36.636719 37.003906 C 52.09375 21.613281 73.289063 12.050781 96.664063 12.050781 C 120.058594 12.050781 141.34375 21.613281 156.710938 37.003906 C 172.101563 52.4375 181.664063 73.65625 181.664063 97.007813 C 181.664063 120.402344 172.101563 141.621094 156.710938 157.054688 C 141.34375 172.445313 120.058594 182.007813 96.664063 182.007813 "/>
<path style=" stroke:none;fill-rule:evenodd;fill:rgb(1.998901%,45.098877%,27.099609%);fill-opacity:1;" d="M 96.664063 180.25 C 119.59375 180.25 140.410156 170.867188 155.488281 155.785156 C 170.523438 140.753906 179.90625 119.890625 179.90625 97.007813 C 179.90625 74.164063 170.523438 53.304688 155.488281 38.269531 C 140.410156 23.191406 119.59375 13.808594 96.664063 13.808594 C 73.824219 13.808594 53.027344 23.191406 37.925781 38.269531 C 22.828125 53.304688 13.464844 74.164063 13.464844 97.007813 C 13.464844 119.890625 22.828125 140.753906 37.925781 155.785156 C 53.027344 170.867188 73.824219 180.25 96.664063 180.25 "/>
<path style=" stroke:none;fill-rule:evenodd;fill:rgb(100%,100%,100%);fill-opacity:1;" d="M 51.804688 37.402344 L 50.738281 39.78125 L 52.671875 41.539063 L 50.046875 41.25 L 49.003906 43.632813 L 48.425781 41.074219 L 45.910156 40.785156 L 48.136719 39.492188 L 47.601563 36.9375 L 49.515625 38.691406 L 51.804688 37.402344 "/>
<path style=" stroke:none;fill-rule:evenodd;fill:rgb(100%,100%,100%);fill-opacity:1;" d="M 45.910156 44.386719 L 44.976563 47.546875 L 47.714844 49.414063 L 44.398438 49.523438 L 43.53125 52.660156 L 42.351563 49.636719 L 39.085938 49.703125 L 41.664063 47.722656 L 40.550781 44.566406 L 43.289063 46.433594 L 45.910156 44.386719 "/>
<path style=" stroke:none;fill-rule:evenodd;fill:rgb(100%,100%,100%);fill-opacity:1;" d="M 39.683594 54.59375 L 39.550781 58.621094 L 43.398438 59.886719 L 39.507813 61.109375 L 39.507813 65.070313 L 37.105469 61.867188 L 33.324219 62.980469 L 35.703125 59.84375 L 33.390625 56.464844 L 37.238281 57.796875 L 39.683594 54.59375 "/>
<path style=" stroke:none;fill-rule:evenodd;fill:rgb(100%,100%,100%);fill-opacity:1;" d="M 35.191406 67.359375 L 36.238281 73.121094 L 42.066406 73.945313 L 36.816406 76.722656 L 37.859375 82.507813 L 33.613281 78.480469 L 28.429688 81.214844 L 30.988281 75.96875 L 26.742188 71.785156 L 32.636719 72.585938 L 35.191406 67.359375 "/>
<path style=" stroke:none;fill-rule:evenodd;fill:rgb(100%,100%,100%);fill-opacity:1;" d="M 141.566406 37.402344 L 142.679688 39.78125 L 140.699219 41.539063 L 143.324219 41.25 L 144.367188 43.632813 L 144.945313 41.074219 L 147.503906 40.785156 L 145.234375 39.492188 L 145.8125 36.9375 L 143.835938 38.691406 L 141.566406 37.402344 "/>
<path style=" stroke:none;fill-rule:evenodd;fill:rgb(100%,100%,100%);fill-opacity:1;" d="M 147.503906 44.386719 L 148.394531 47.546875 L 145.636719 49.414063 L 148.972656 49.523438 L 149.839844 52.660156 L 150.996094 49.636719 L 154.265625 49.703125 L 151.707031 47.722656 L 152.820313 44.566406 L 150.085938 46.433594 L 147.503906 44.386719 "/>
<path style=" stroke:none;fill-rule:evenodd;fill:rgb(100%,100%,100%);fill-opacity:1;" d="M 153.753906 54.59375 L 153.796875 58.621094 L 150.019531 59.886719 L 153.863281 61.109375 L 153.910156 65.070313 L 156.246094 61.867188 L 160.046875 62.980469 L 157.644531 59.84375 L 159.980469 56.464844 L 156.132813 57.796875 L 153.753906 54.59375 "/>
<path style=" stroke:none;fill-rule:evenodd;fill:rgb(100%,100%,100%);fill-opacity:1;" d="M 158.179688 67.359375 L 157.179688 73.121094 L 151.308594 73.945313 L 156.535156 76.722656 L 155.488281 82.507813 L 159.804688 78.480469 L 164.941406 81.214844 L 162.359375 75.96875 L 166.675781 71.785156 L 160.738281 72.585938 L 158.179688 67.359375 "/>
<path style=" stroke:none;fill-rule:evenodd;fill:rgb(100%,100%,100%);fill-opacity:1;" d="M 67.707031 109.105469 C 67.53125 108.992188 67.171875 108.992188 66.996094 109.171875 L 39.085938 146.15625 C 38.75 146.625 38.863281 147.269531 39.21875 147.691406 C 44 152.917969 48.890625 157.34375 54.585938 161.371094 C 54.941406 161.613281 55.585938 162.125 55.875 161.4375 L 58.855469 154.429688 C 59.011719 154.03125 58.898438 153.453125 58.566406 153.207031 C 55.585938 151.226563 53.027344 148.914063 50.515625 146.511719 C 50.160156 146.15625 50.226563 145.289063 50.515625 144.824219 L 72.488281 112.886719 C 72.601563 112.773438 72.488281 112.484375 72.3125 112.417969 C 70.664063 111.375 69.109375 110.285156 67.707031 109.105469 "/>
<path style=" stroke:none;fill-rule:evenodd;fill:rgb(100%,100%,100%);fill-opacity:1;" d="M 93.640625 174.3125 C 94.039063 174.3125 94.039063 174.023438 94.039063 173.78125 L 94.441406 119.714844 C 94.441406 119.535156 94.21875 119.359375 94.039063 119.359375 C 92.707031 119.3125 91.304688 119.136719 89.902344 118.957031 C 89.726563 118.890625 89.503906 119.003906 89.367188 119.246094 L 82.851563 134.28125 C 82.675781 134.636719 82.5625 134.570313 82.496094 134.214844 L 81.984375 117.335938 C 81.984375 117.089844 81.917969 116.976563 81.808594 116.976563 C 80.183594 116.398438 78.648438 115.753906 77.09375 115 C 76.960938 114.933594 76.738281 114.933594 76.625 115.175781 L 56.988281 162.414063 C 56.875 162.660156 56.988281 162.949219 57.164063 163.058594 C 59.078125 164.28125 61.011719 165.328125 62.992188 166.394531 C 63.214844 166.507813 63.679688 166.617188 63.792969 166.21875 L 75.867188 132.414063 C 75.980469 132.011719 76.09375 131.945313 76.09375 132.480469 L 76.625 161.148438 C 76.625 162.660156 76.738281 162.660156 77.382813 161.257813 L 88.855469 135.726563 C 88.96875 135.394531 89.078125 135.394531 89.035156 135.792969 L 86.054688 173.089844 C 86.011719 173.3125 86.300781 173.601563 86.523438 173.667969 C 88.925781 174.023438 91.304688 174.203125 93.640625 174.3125 "/>
<path style=" stroke:none;fill-rule:evenodd;fill:rgb(100%,100%,100%);fill-opacity:1;" d="M 113.300781 122.804688 C 110.851563 123.5625 108.183594 124.25 104.449219 124.894531 C 104.269531 124.894531 104.046875 125.183594 104.046875 125.429688 L 104.382813 139.640625 C 104.382813 139.863281 104.558594 140.21875 104.980469 140.175781 C 108.519531 139.640625 112.03125 138.996094 115.523438 138.238281 C 115.988281 138.128906 116.167969 138.238281 116.277344 138.886719 L 117.148438 144.46875 C 117.214844 144.777344 117.257813 145.179688 116.859375 145.289063 C 113.011719 146.222656 109.117188 146.980469 105.203125 147.558594 C 104.914063 147.625 104.558594 147.734375 104.558594 148.269531 L 104.914063 163.015625 C 104.914063 163.773438 105.382813 164.171875 105.78125 164.105469 C 110.273438 163.816406 114.765625 162.59375 119.125 161.480469 C 119.414063 161.4375 119.839844 161.324219 119.949219 161.949219 L 121.105469 169.644531 C 121.238281 170.066406 120.816406 170.464844 120.304688 170.578125 C 112.964844 172.84375 105.960938 174.203125 97.976563 174.378906 C 97.398438 174.378906 96.929688 174.203125 96.929688 173.667969 L 97.285156 119.9375 C 97.285156 119.648438 97.796875 119.46875 98.152344 119.46875 C 103.289063 119.136719 107.605469 118.425781 112.074219 116.734375 C 112.609375 116.554688 112.789063 116.621094 112.789063 116.867188 L 113.65625 122.273438 C 113.722656 122.628906 113.589844 122.695313 113.300781 122.804688 "/>
<path style=" stroke:none;fill-rule:evenodd;fill:rgb(100%,100%,100%);fill-opacity:1;" d="M 124.730469 168.953125 C 124.554688 168.996094 124.265625 168.996094 124.195313 168.707031 L 114.523438 115.976563 C 114.476563 115.867188 114.523438 115.800781 114.699219 115.753906 C 116.167969 115.109375 117.613281 114.355469 119.015625 113.597656 C 119.125 113.53125 119.414063 113.488281 119.414063 113.640625 L 132.824219 164.460938 C 132.9375 164.859375 132.894531 165.039063 132.714844 165.171875 C 130.089844 166.550781 127.53125 167.773438 124.730469 168.953125 "/>
<path style=" stroke:none;fill-rule:evenodd;fill:rgb(100%,100%,100%);fill-opacity:1;" d="M 166.851563 100.320313 C 166.496094 102.054688 166.03125 103.679688 165.519531 105.324219 C 165.453125 105.433594 165.339844 105.726563 164.984375 105.613281 L 163.828125 104.96875 C 163.652344 104.855469 163.429688 105.035156 163.296875 105.148438 L 161.492188 109.640625 C 161.382813 109.929688 161.382813 110.21875 161.78125 110.507813 L 169.878906 115.933594 C 170.167969 116.109375 170.699219 116.15625 170.878906 115.464844 C 172.457031 108.925781 173.148438 102.457031 173.078125 95.851563 C 173.078125 95.5625 172.96875 95.273438 172.613281 95.140625 L 159.226563 90.488281 C 158.691406 90.246094 157.890625 90.3125 157.535156 91.003906 C 156.355469 93.269531 155.265625 95.140625 154.222656 96.828125 C 154.042969 97.007813 153.753906 97.363281 153.285156 97.117188 L 146.703125 93.914063 C 146.390625 93.738281 146.171875 93.582031 146.390625 93.046875 L 147.460938 90.714844 C 147.570313 90.425781 147.972656 90.488281 148.214844 90.601563 L 150.484375 91.46875 C 150.707031 91.578125 150.996094 91.578125 151.128906 91.246094 L 152.175781 88.445313 C 152.285156 88.222656 151.929688 87.910156 151.707031 87.800781 L 142.902344 84.773438 C 142.566406 84.664063 142.320313 84.886719 142.210938 85.128906 C 141.210938 88.15625 139.988281 90.957031 138.476563 93.804688 C 138.1875 94.339844 138.429688 94.738281 138.71875 94.960938 L 155.378906 106.191406 C 155.664063 106.371094 156.199219 106.371094 156.488281 105.835938 C 158.179688 103.167969 159.734375 100.429688 161.269531 97.761719 C 161.382813 97.585938 161.558594 97.40625 161.960938 97.585938 L 166.5625 99.632813 C 166.785156 99.675781 166.921875 99.898438 166.851563 100.320313 "/>
<path style=" stroke:none;fill-rule:evenodd;fill:rgb(100%,100%,100%);fill-opacity:1;" d="M 24.761719 122.917969 C 24.652344 122.628906 24.984375 122.273438 25.230469 122.09375 L 58.898438 100.765625 C 59.078125 100.65625 59.433594 100.765625 59.542969 100.898438 C 60.546875 102.054688 61.523438 103.210938 62.570313 104.390625 C 62.703125 104.613281 62.859375 104.902344 62.746094 105.148438 L 38.105469 145.535156 C 37.925781 145.757813 37.347656 145.578125 37.171875 145.355469 C 36.171875 144.066406 35.191406 142.84375 34.324219 141.441406 C 34.148438 141.21875 34.191406 140.796875 34.371094 140.574219 L 40.152344 131.300781 C 40.441406 130.789063 40.441406 130.5 40.261719 129.964844 C 39.261719 127.34375 38.394531 124.785156 37.570313 122.160156 C 37.527344 121.914063 36.992188 121.871094 36.769531 121.980469 L 27.5625 128.164063 C 27.320313 128.277344 26.851563 128.210938 26.742188 127.988281 C 26.050781 126.363281 25.339844 124.605469 24.761719 122.917969 Z M 52.273438 111.664063 L 42.710938 118.089844 C 42.464844 118.203125 42.351563 118.558594 42.464844 118.847656 C 42.929688 120.535156 43.464844 122.09375 44.109375 123.5625 C 44.222656 123.960938 44.578125 124.207031 44.800781 123.785156 L 52.316406 111.730469 C 52.382813 111.664063 52.316406 111.617188 52.273438 111.664063 "/>
<path style=" stroke:none;fill-rule:evenodd;fill:rgb(100%,100%,100%);fill-opacity:1;" d="M 153.976563 148.09375 C 153.796875 148.269531 153.507813 148.449219 153.285156 148.160156 L 138.429688 130.144531 C 138.296875 129.964844 138.074219 129.789063 137.828125 129.964844 L 135.273438 131.769531 C 135.050781 131.945313 134.738281 132.191406 134.914063 132.65625 L 144.125 157.054688 C 144.257813 157.34375 144.125 157.523438 143.945313 157.699219 C 141.566406 159.566406 139.121094 161.324219 136.5625 162.949219 C 136.382813 163.058594 136.09375 163.171875 136.027344 162.882813 L 121.28125 112.484375 L 121.574219 112.085938 C 125.421875 109.574219 128.15625 107.527344 131.203125 104.101563 C 132.292969 102.878906 133.582031 103.679688 134.117188 104.570313 L 143.902344 120.691406 C 144.835938 122.160156 144.769531 124.25 143.65625 125.605469 L 143.367188 125.941406 L 158.003906 142.199219 C 158.289063 142.488281 158.222656 142.777344 158.046875 142.953125 C 156.710938 144.777344 155.445313 146.335938 153.976563 148.09375 Z M 135.984375 121.515625 L 131.960938 113.597656 C 131.824219 113.308594 131.601563 113.242188 131.3125 113.417969 C 130.445313 113.996094 129.558594 114.753906 128.621094 115.332031 C 128.511719 115.464844 128.511719 115.578125 128.578125 115.6875 L 131.890625 124.539063 C 131.960938 124.671875 132.070313 124.785156 132.246094 124.671875 L 135.738281 122.160156 C 135.917969 122.050781 136.140625 121.804688 135.984375 121.515625 "/>
<path style=" stroke:none;fill-rule:evenodd;fill:rgb(100%,100%,100%);fill-opacity:1;" d="M 168.367188 123.671875 C 168.320313 123.851563 168.1875 124.027344 167.964844 123.917969 L 159.980469 118.425781 C 159.804688 118.378906 159.582031 118.378906 159.445313 118.558594 L 156.132813 126.941406 C 156.066406 127.164063 156.132813 127.410156 156.246094 127.585938 L 161.78125 136.792969 C 161.894531 136.949219 161.894531 137.195313 161.847656 137.304688 C 160.847656 138.886719 159.871094 140.398438 158.824219 141.910156 C 158.757813 142.019531 158.511719 142.085938 158.402344 141.910156 L 133.9375 101.230469 C 133.828125 101.078125 133.828125 100.898438 133.9375 100.71875 C 134.984375 99.410156 135.917969 98.050781 136.851563 96.652344 C 136.894531 96.539063 137.074219 96.429688 137.253906 96.539063 L 170.011719 117.625 C 170.121094 117.734375 170.234375 117.914063 170.167969 118.136719 C 169.65625 119.9375 169.078125 121.804688 168.367188 123.671875 Z M 153.910156 114.285156 L 144.878906 108.171875 C 144.546875 107.949219 144.480469 107.992188 144.65625 108.347656 L 151.707031 120.070313 C 151.820313 120.246094 152.109375 120.648438 152.351563 120.113281 C 152.574219 119.535156 153.796875 116.691406 154.265625 115.042969 C 154.332031 114.710938 154.089844 114.464844 153.910156 114.285156 "/>
<path style=" stroke:none;fill-rule:evenodd;fill:rgb(100%,100%,100%);fill-opacity:1;" d="M 39.683594 110.105469 C 37.105469 106.835938 34.835938 103.167969 32.679688 99.164063 C 32.5 98.765625 32.167969 98.765625 31.878906 98.875 L 21.203125 102.523438 C 20.558594 102.765625 20.449219 102.34375 20.449219 102.054688 C 20.226563 99.566406 20.269531 97.074219 20.269531 94.628906 C 20.269531 94.046875 20.558594 93.804688 20.914063 93.738281 L 51.496094 87.6875 C 51.851563 87.621094 52.140625 87.800781 52.207031 87.976563 C 53.71875 91.714844 55.476563 94.847656 57.566406 98.183594 C 57.742188 98.40625 57.566406 98.808594 57.386719 98.941406 L 40.730469 110.328125 C 40.375 110.574219 40.019531 110.507813 39.683594 110.105469 Z M 49.46875 98.007813 C 48.535156 96.652344 47.667969 95.273438 46.847656 93.871094 C 46.78125 93.804688 46.667969 93.804688 46.558594 93.871094 L 38.683594 96.605469 C 38.328125 96.652344 38.394531 96.894531 38.460938 97.007813 C 39.441406 98.984375 40.617188 100.765625 41.953125 102.523438 C 42.132813 102.765625 42.53125 102.878906 42.753906 102.699219 L 49.46875 98.230469 C 49.515625 98.183594 49.515625 98.050781 49.46875 98.007813 "/>
<path style=" stroke:none;fill-rule:evenodd;fill:rgb(100%,100%,100%);fill-opacity:1;" d="M 96.664063 112.375 C 121.171875 112.375 141.210938 92.402344 141.210938 67.828125 C 141.210938 43.296875 121.171875 23.238281 96.664063 23.238281 C 72.132813 23.238281 52.140625 43.296875 52.140625 67.828125 C 52.140625 92.402344 72.132813 112.375 96.664063 112.375 "/>
<path style=" stroke:none;fill-rule:evenodd;fill:rgb(1.998901%,45.098877%,27.099609%);fill-opacity:1;" d="M 96.664063 110.574219 C 84.945313 110.574219 74.222656 105.726563 66.484375 98.007813 C 58.722656 90.3125 53.964844 79.636719 53.964844 67.828125 C 53.964844 44.277344 73.132813 25.039063 96.664063 25.039063 C 108.40625 25.039063 119.082031 29.886719 126.820313 37.625 C 134.582031 45.386719 139.410156 56.039063 139.410156 67.828125 C 139.410156 91.425781 120.171875 110.574219 96.664063 110.574219 "/>
<path style=" stroke:none;fill-rule:evenodd;fill:rgb(100%,100%,100%);fill-opacity:1;" d="M 84.253906 34.222656 C 88.835938 31.53125 92.480469 28.617188 95.0625 26.304688 C 82.984375 26.773438 72.222656 32.464844 64.90625 41.160156 C 71.355469 40.226563 77.871094 37.914063 84.253906 34.222656 "/>
<path style=" stroke:none;fill-rule:evenodd;fill:rgb(100%,100%,100%);fill-opacity:1;" d="M 109.097656 34.222656 C 115.480469 37.914063 121.972656 40.226563 128.445313 41.160156 C 127.664063 40.25 126.867188 39.359375 125.996094 38.515625 C 118.816406 31.308594 109.074219 26.75 98.332031 26.304688 C 100.867188 28.597656 104.515625 31.53125 109.097656 34.222656 "/>
<path style=" stroke:none;fill-rule:evenodd;fill:rgb(100%,100%,100%);fill-opacity:1;" d="M 70.355469 79.816406 C 64.414063 67.78125 61.457031 54.574219 62.347656 44.519531 C 57.832031 51.171875 55.1875 59.199219 55.1875 67.828125 C 55.1875 79.304688 59.835938 89.667969 67.351563 97.117188 C 74.421875 104.191406 84.054688 108.773438 94.683594 109.28125 C 81.984375 99.941406 74.46875 88.199219 70.355469 79.816406 "/>
<path style=" stroke:none;fill-rule:evenodd;fill:rgb(100%,100%,100%);fill-opacity:1;" d="M 131.070313 44.652344 C 131.890625 54.660156 128.910156 67.851563 123.019531 79.816406 C 117.234375 91.667969 108.851563 101.808594 98.664063 109.28125 C 120.570313 108.238281 138.1875 90.046875 138.1875 67.828125 C 138.1875 59.242188 135.5625 51.257813 131.070313 44.652344 "/>
<path style=" stroke:none;fill-rule:evenodd;fill:rgb(100%,100%,100%);fill-opacity:1;" d="M 96.664063 109.171875 C 108.117188 101.078125 116.390625 90.3125 121.863281 79.238281 C 128.511719 65.671875 130.914063 51.859375 129.511719 42.695313 C 121.238281 41.71875 114.121094 38.691406 108.472656 35.355469 C 103.046875 32.15625 98.976563 28.730469 96.664063 26.574219 C 94.394531 28.730469 90.371094 32.15625 84.945313 35.355469 C 79.292969 38.691406 72.132813 41.652344 63.859375 42.652344 C 62.527344 51.859375 64.839844 65.671875 71.554688 79.238281 C 76.960938 90.246094 85.230469 101.078125 96.664063 109.171875 "/>
<path style=" stroke:none;fill-rule:evenodd;fill:rgb(1.998901%,45.098877%,27.099609%);fill-opacity:1;" d="M 96.664063 107.59375 C 95.550781 106.769531 94.441406 105.96875 93.351563 105.082031 C 84.363281 97.941406 77.605469 88.800781 72.890625 79.414063 C 67.308594 68.226563 64.550781 56.753906 64.394531 48.058594 C 64.394531 46.542969 64.4375 44.964844 64.617188 43.453125 C 66.773438 43.230469 68.929688 42.875 71.089844 42.296875 C 74.757813 41.429688 78.183594 40.070313 81.339844 38.558594 C 86.234375 36.179688 90.257813 33.378906 93.0625 31.175781 C 94.328125 30.109375 95.550781 29.0625 96.664063 27.90625 C 97.796875 29.019531 98.976563 30.109375 100.246094 31.109375 C 103.046875 33.378906 107.070313 36.179688 112.03125 38.558594 C 115.566406 40.25 119.550781 41.761719 123.796875 42.652344 C 125.421875 43.054688 127.109375 43.296875 128.800781 43.453125 C 128.910156 44.921875 128.980469 46.320313 128.980469 47.722656 C 128.910156 56.394531 126.175781 68.050781 120.484375 79.414063 C 115.746094 88.84375 108.941406 98.007813 99.910156 105.214844 C 98.867188 106.015625 97.753906 106.835938 96.664063 107.59375 "/>
<path style=" stroke:none;fill-rule:evenodd;fill:rgb(100%,100%,100%);fill-opacity:1;" d="M 101.421875 33.621094 C 99.332031 32.042969 97.6875 30.644531 96.664063 29.597656 C 95.664063 30.644531 94.039063 32.042969 91.949219 33.621094 L 101.421875 33.621094 "/>
<path style=" stroke:none;fill-rule:evenodd;fill:rgb(100%,100%,100%);fill-opacity:1;" d="M 109.164063 38.449219 C 106.960938 37.292969 104.914063 36.003906 103.15625 34.847656 L 90.191406 34.847656 C 88.457031 36.003906 86.410156 37.292969 84.1875 38.449219 L 109.164063 38.449219 "/>
<path style=" stroke:none;fill-rule:evenodd;fill:rgb(100%,100%,100%);fill-opacity:1;" d="M 121.417969 43.34375 C 117.859375 42.40625 114.523438 41.140625 111.5625 39.671875 L 81.808594 39.671875 C 78.78125 41.140625 75.445313 42.40625 71.886719 43.34375 L 121.417969 43.34375 "/>
<path style=" stroke:none;fill-rule:evenodd;fill:rgb(100%,100%,100%);fill-opacity:1;" d="M 127.753906 48.300781 C 127.753906 47.011719 127.753906 45.789063 127.644531 44.632813 L 65.726563 44.632813 C 65.617188 45.789063 65.617188 47.011719 65.617188 48.300781 L 127.753906 48.300781 "/>
<path style=" stroke:none;fill-rule:evenodd;fill:rgb(100%,100%,100%);fill-opacity:1;" d="M 127.398438 53.195313 C 127.53125 51.972656 127.644531 50.746094 127.6875 49.523438 L 65.660156 49.523438 C 65.726563 50.746094 65.839844 51.972656 66.015625 53.195313 L 127.398438 53.195313 "/>
<path style=" stroke:none;fill-rule:evenodd;fill:rgb(100%,100%,100%);fill-opacity:1;" d="M 126.597656 58.085938 C 126.886719 56.863281 127.066406 55.640625 127.222656 54.484375 L 66.128906 54.484375 C 66.304688 55.640625 66.527344 56.863281 66.773438 58.085938 L 126.597656 58.085938 "/>
<path style=" stroke:none;fill-rule:evenodd;fill:rgb(100%,100%,100%);fill-opacity:1;" d="M 125.488281 62.980469 C 125.777344 61.757813 126.066406 60.53125 126.355469 59.308594 L 66.996094 59.308594 C 67.308594 60.53125 67.597656 61.757813 67.929688 62.980469 L 125.488281 62.980469 "/>
<path style=" stroke:none;fill-rule:evenodd;fill:rgb(100%,100%,100%);fill-opacity:1;" d="M 123.976563 67.871094 C 124.375 66.648438 124.773438 65.425781 125.132813 64.203125 L 68.285156 64.203125 C 68.640625 65.425781 68.972656 66.648438 69.398438 67.871094 L 123.976563 67.871094 "/>
<path style=" stroke:none;fill-rule:evenodd;fill:rgb(100%,100%,100%);fill-opacity:1;" d="M 122.171875 72.832031 C 122.640625 71.542969 123.085938 70.320313 123.550781 69.160156 L 69.863281 69.160156 C 70.265625 70.320313 70.730469 71.542969 71.265625 72.832031 L 122.171875 72.832031 "/>
<path style=" stroke:none;fill-rule:evenodd;fill:rgb(100%,100%,100%);fill-opacity:1;" d="M 119.949219 77.726563 C 120.527344 76.503906 121.105469 75.277344 121.640625 74.054688 L 71.777344 74.054688 C 72.3125 75.277344 72.824219 76.503906 73.421875 77.726563 L 119.949219 77.726563 "/>
<path style=" stroke:none;fill-rule:evenodd;fill:rgb(100%,100%,100%);fill-opacity:1;" d="M 117.390625 82.617188 C 118.082031 81.394531 118.726563 80.171875 119.371094 78.949219 L 74.046875 78.949219 C 74.644531 80.171875 75.335938 81.394531 75.980469 82.617188 L 117.390625 82.617188 "/>
<path style=" stroke:none;fill-rule:evenodd;fill:rgb(100%,100%,100%);fill-opacity:1;" d="M 114.34375 87.511719 C 115.167969 86.285156 115.921875 85.0625 116.679688 83.839844 L 76.738281 83.839844 C 77.425781 85.0625 78.183594 86.285156 79.003906 87.511719 L 114.34375 87.511719 "/>
<path style=" stroke:none;fill-rule:evenodd;fill:rgb(100%,100%,100%);fill-opacity:1;" d="M 110.851563 92.402344 C 111.785156 91.179688 112.652344 90.023438 113.542969 88.734375 L 79.828125 88.734375 C 80.695313 90.023438 81.5625 91.179688 82.496094 92.402344 L 110.851563 92.402344 "/>
<path style=" stroke:none;fill-rule:evenodd;fill:rgb(100%,100%,100%);fill-opacity:1;" d="M 106.671875 97.25 C 107.761719 96.140625 108.871094 94.917969 109.875 93.625 L 83.496094 93.625 C 84.542969 94.917969 85.589844 96.140625 86.699219 97.25 L 106.671875 97.25 "/>
<path style=" stroke:none;fill-rule:evenodd;fill:rgb(100%,100%,100%);fill-opacity:1;" d="M 101.644531 102.121094 C 103.003906 100.945313 104.269531 99.71875 105.492188 98.472656 L 87.855469 98.472656 C 89.078125 99.71875 90.371094 100.945313 91.769531 102.121094 L 101.644531 102.121094 "/>
<path style=" stroke:none;fill-rule:evenodd;fill:rgb(100%,100%,100%);fill-opacity:1;" d="M 96.664063 106.082031 C 97.863281 105.214844 99.019531 104.324219 100.199219 103.390625 L 93.171875 103.390625 C 94.328125 104.324219 95.507813 105.214844 96.664063 106.082031 "/>
<path style=" stroke:none;fill-rule:evenodd;fill:rgb(1.998901%,45.098877%,27.099609%);fill-opacity:1;" d="M 80.40625 87.511719 C 82.164063 87.511719 84.253906 87.578125 85.296875 85.886719 C 85.945313 84.996094 85.945313 83.953125 85.945313 83.730469 L 85.945313 62.980469 C 85.945313 62.757813 85.765625 62.402344 85.410156 62.113281 C 84.722656 61.46875 83.207031 60.933594 82.320313 60.820313 C 83.207031 60.644531 84.722656 60.132813 85.476563 59.53125 C 85.765625 59.242188 85.945313 58.953125 85.945313 58.730469 L 85.945313 46.078125 C 85.945313 45.675781 85.878906 45.386719 85.699219 45.097656 C 85.476563 44.632813 85.121094 44.277344 84.652344 43.988281 C 83.496094 43.40625 81.5625 43.585938 80.40625 43.875 C 80.519531 43.40625 81.050781 42.40625 81.230469 42.117188 C 82.675781 39.605469 84.433594 39.09375 86.121094 39.316406 C 87.703125 39.492188 89.148438 40.429688 90.148438 41.140625 C 91.660156 39.738281 93.394531 38.691406 95.085938 37.980469 C 97.464844 37.046875 99.84375 36.691406 101.710938 36.691406 C 106.027344 36.691406 109.984375 38.558594 112.832031 41.539063 C 115.8125 44.519531 117.613281 48.523438 117.613281 52.839844 C 117.613281 56.617188 115.699219 61 112.542969 64.269531 C 109.742188 67.183594 106.027344 69.273438 101.933594 69.339844 C 99.84375 69.386719 97.753906 68.804688 96.261719 67.695313 C 94.863281 66.714844 93.863281 65.203125 93.863281 63.378906 C 93.863281 63.15625 93.863281 62.914063 93.929688 62.691406 C 93.972656 61.289063 94.441406 60 95.328125 59.085938 C 96.195313 58.152344 97.398438 57.507813 99.15625 57.507813 C 99.332031 57.507813 99.488281 57.507813 99.734375 57.554688 C 100.957031 57.621094 101.890625 57.976563 102.46875 58.488281 C 103.226563 59.199219 103.46875 60.066406 103.46875 60.933594 C 103.46875 62.402344 102.578125 63.914063 101 64.023438 C 101.3125 64.136719 101.644531 64.203125 102.066406 64.269531 C 104.691406 64.3125 108.183594 61.824219 108.695313 59.199219 C 108.941406 58.152344 108.652344 57.265625 108.363281 56.328125 C 108.074219 55.574219 107.828125 54.773438 107.828125 53.839844 C 107.761719 52.371094 108.183594 51.503906 108.585938 50.679688 C 109.050781 49.746094 109.453125 48.945313 108.871094 47.300781 C 108.296875 45.742188 107.296875 44.277344 105.914063 43.296875 C 104.625 42.40625 103.046875 41.894531 101 41.894531 C 99.445313 41.894531 97.574219 42.695313 96.195313 43.921875 C 94.863281 45.03125 93.863281 46.433594 93.863281 47.769531 L 93.863281 93.046875 C 92.414063 92.691406 91.125 92.292969 90.015625 91.179688 C 89.4375 90.667969 88.96875 89.957031 88.679688 89.3125 C 87.746094 90.066406 86.765625 90.601563 85.65625 90.667969 C 83.851563 90.777344 81.050781 89.3125 80.40625 87.511719 "/>
<path style=" stroke:none;fill-rule:evenodd;fill:rgb(100%,100%,100%);fill-opacity:1;" d="M 82.917969 88.554688 C 83.898438 89.199219 84.789063 89.488281 85.589844 89.445313 C 87.167969 89.3125 88.679688 87.800781 89.324219 86.933594 C 89.367188 87.867188 89.792969 89.3125 90.835938 90.3125 C 91.371094 90.777344 91.949219 91.136719 92.636719 91.425781 L 92.636719 47.769531 C 92.636719 46.03125 93.816406 44.277344 95.375 42.984375 C 96.996094 41.605469 99.199219 40.605469 101 40.671875 C 103.289063 40.671875 105.160156 41.296875 106.605469 42.296875 C 108.230469 43.453125 109.339844 45.097656 110.050781 46.898438 C 110.808594 48.992188 110.273438 50.035156 109.695313 51.214844 C 109.40625 51.902344 108.984375 52.660156 109.050781 53.773438 C 109.050781 54.59375 109.296875 55.285156 109.519531 55.929688 C 109.875 57.039063 110.207031 58.085938 109.917969 59.488281 C 109.230469 62.691406 105.269531 65.535156 102 65.492188 C 101.132813 65.425781 100.378906 65.136719 99.777344 64.78125 C 98.332031 63.800781 98.21875 62.335938 98.441406 61.402344 C 98.6875 61.824219 99.445313 62.511719 100.132813 62.691406 C 100.3125 62.800781 100.488281 62.800781 100.710938 62.800781 C 101.777344 62.800781 102.246094 61.867188 102.246094 60.933594 C 102.246094 60.355469 102.113281 59.84375 101.644531 59.421875 C 101.246094 59.085938 100.601563 58.84375 99.621094 58.777344 C 99.445313 58.730469 99.265625 58.730469 99.15625 58.730469 C 97.753906 58.730469 96.820313 59.199219 96.261719 59.886719 C 95.550781 60.644531 95.195313 61.691406 95.152344 62.800781 C 95.085938 62.980469 95.085938 63.222656 95.085938 63.378906 C 95.085938 64.78125 95.839844 65.894531 96.863281 66.714844 C 98.21875 67.648438 100.089844 68.160156 101.933594 68.117188 C 105.671875 68.050781 109.117188 66.136719 111.675781 63.378906 C 114.589844 60.355469 116.390625 56.328125 116.390625 52.839844 C 116.390625 48.878906 114.699219 45.144531 111.964844 42.363281 C 109.339844 39.671875 105.671875 37.914063 101.710938 37.914063 C 99.957031 37.914063 97.753906 38.226563 95.550781 39.136719 C 93.816406 39.851563 92.125 40.894531 90.660156 42.363281 L 90.304688 42.761719 L 89.902344 42.472656 C 88.96875 41.828125 87.457031 40.71875 85.945313 40.496094 C 84.789063 40.382813 83.542969 40.785156 82.496094 42.40625 C 83.429688 42.296875 84.433594 42.472656 85.230469 42.941406 C 85.945313 43.296875 86.523438 43.875 86.8125 44.566406 C 87.054688 45.03125 87.167969 45.5 87.167969 46.078125 L 87.167969 58.730469 C 87.167969 59.308594 86.878906 59.953125 86.300781 60.464844 C 86.121094 60.601563 85.945313 60.710938 85.765625 60.820313 C 85.945313 60.933594 86.121094 61.066406 86.234375 61.179688 C 86.878906 61.757813 87.167969 62.445313 87.167969 62.980469 L 87.167969 83.730469 C 87.167969 84.085938 87.101563 85.351563 86.34375 86.574219 C 85.765625 87.511719 84.722656 88.332031 82.917969 88.554688 "/>
</g>
</svg>
